<?xml version="1.0" encoding="utf-8"?>
<!-- Generator: Adobe Illustrator 26.0.1, SVG Export Plug-In . SVG Version: 6.00 Build 0)  -->
<svg version="1.1" id="Layer_1" xmlns="http://www.w3.org/2000/svg" xmlns:xlink="http://www.w3.org/1999/xlink" x="0px" y="0px"
	 viewBox="0 0 150 150" style="enable-background:new 0 0 150 150;" xml:space="preserve">
<style type="text/css">
	.st0{fill:#28B24B;}
	.st1{clip-path:url(#SVGID_00000053512558683537026520000006561715124147070345_);}
	.st2{opacity:0.37;enable-background:new    ;}
	.st3{fill:#FFFFFF;}
	.st4{clip-path:url(#SVGID_00000165194308247439099700000008169706151503824541_);}
	.st5{clip-path:url(#SVGID_00000173840938811133131170000011436598537820122524_);}
	.st6{clip-path:url(#SVGID_00000161619309587473227930000003907031515394802603_);}
	.st7{clip-path:url(#SVGID_00000054980224243071032400000013909410070518415791_);}
	.st8{clip-path:url(#SVGID_00000033330646549363424010000009761214837042738324_);}
	.st9{clip-path:url(#SVGID_00000114753718629763996780000018250888628558416000_);}
	.st10{clip-path:url(#SVGID_00000144320142513206675010000000795683823246338432_);}
	.st11{clip-path:url(#SVGID_00000054960789155301250170000010318895203363706547_);}
	.st12{clip-path:url(#SVGID_00000160153534107159447720000012890276664431571588_);}
	.st13{clip-path:url(#SVGID_00000163795770280004282390000014332515410406188948_);}
	.st14{clip-path:url(#SVGID_00000089548990515743064280000013662209995839795866_);}
	.st15{fill:#A3A3A3;}
	.st16{fill:#7A7A7A;}
	.st17{fill:#757575;}
	.st18{clip-path:url(#SVGID_00000022550771015906959010000006025014479434655892_);}
	.st19{fill:none;stroke:#263238;stroke-width:0.25;stroke-linecap:round;stroke-linejoin:round;}
	.st20{fill:#28B24B;stroke:#263238;stroke-width:0.25;stroke-linecap:round;stroke-linejoin:round;}
	.st21{fill:#FFFFFF;stroke:#263238;stroke-width:0.25;stroke-linecap:round;stroke-linejoin:round;}
	.st22{clip-path:url(#SVGID_00000045601674635193475150000005498939909011072674_);}
	.st23{clip-path:url(#SVGID_00000041976851404686564490000012764212428377419189_);}
	.st24{clip-path:url(#SVGID_00000091732986105365972040000004873392386436419727_);}
	.st25{clip-path:url(#SVGID_00000171698523242742112000000010362192663862279327_);}
	.st26{clip-path:url(#SVGID_00000150069119078339546470000012944961220328315525_);}
	.st27{fill:#263238;stroke:#263238;stroke-width:0.25;stroke-linecap:round;stroke-linejoin:round;}
	.st28{fill:#FFFFFF;stroke:#263238;stroke-width:0.25;stroke-miterlimit:10;}
	.st29{fill:#263238;stroke:#263238;stroke-width:0.25;stroke-miterlimit:10;}
	.st30{fill:none;stroke:#263238;stroke-width:0.25;stroke-miterlimit:10;}
	.st31{fill:none;stroke:#878787;stroke-width:0.25;stroke-miterlimit:10;}
	.st32{fill:#CFCFCF;stroke:#263238;stroke-width:0.25;stroke-linecap:round;stroke-linejoin:round;}
	.st33{fill:#666666;stroke:#263238;stroke-width:0.25;stroke-linecap:round;stroke-linejoin:round;}
	.st34{fill:#263238;}
	.st35{fill:#CCCCCC;}
	.st36{fill:#28B24B;stroke:#263238;stroke-width:0.25;stroke-miterlimit:10;}
	.st37{font-family:'BebasNeue-Regular';}
	.st38{font-size:5.6254px;}
	.st39{opacity:0.16;enable-background:new    ;}
	.st40{opacity:0.3;enable-background:new    ;}
	.st41{opacity:0.1;fill:#FFFFFF;enable-background:new    ;}
</style>
<g>
	<g id="freepik--boxes-2--inject-229">
		<rect x="14.46" y="59.88" class="st0" width="20.08" height="18.23"/>
		<g>
			<defs>
				<rect id="SVGID_1_" x="14.46" y="59.88" width="20.08" height="18.23"/>
			</defs>
			<clipPath id="SVGID_00000000909668674841745260000003465857284905876662_">
				<use xlink:href="#SVGID_1_"  style="overflow:visible;"/>
			</clipPath>
			<g style="clip-path:url(#SVGID_00000000909668674841745260000003465857284905876662_);">
				<rect x="14.46" y="59.88" class="st2" width="20.08" height="18.23"/>
			</g>
		</g>
		<rect x="14.46" y="59.88" class="st0" width="14.31" height="18.23"/>
		<rect x="20" y="59.88" class="st3" width="3.07" height="5.09"/>
		<rect x="23.86" y="66.46" class="st3" width="3.56" height="1.82"/>
		
			<rect x="22.55" y="71.69" transform="matrix(0.2402 -0.9707 0.9707 0.2402 -53.43 78.8892)" class="st3" width="2.25" height="3.78"/>
		<rect x="29.43" y="59.88" class="st0" width="20.08" height="18.23"/>
		<g>
			<defs>
				<rect id="SVGID_00000168801647404357115750000001659537151289244831_" x="29.43" y="59.88" width="20.08" height="18.23"/>
			</defs>
			<clipPath id="SVGID_00000108988711288634146200000016599144617266365349_">
				<use xlink:href="#SVGID_00000168801647404357115750000001659537151289244831_"  style="overflow:visible;"/>
			</clipPath>
			<g style="clip-path:url(#SVGID_00000108988711288634146200000016599144617266365349_);">
				<rect x="29.43" y="59.88" class="st2" width="20.08" height="18.23"/>
			</g>
		</g>
		<rect x="29.43" y="59.88" class="st0" width="14.31" height="18.23"/>
		<rect x="34.96" y="59.88" class="st3" width="3.07" height="5.09"/>
		<rect x="38.82" y="66.46" class="st3" width="3.56" height="1.82"/>
		
			<rect x="37.52" y="71.69" transform="matrix(0.2402 -0.9707 0.9707 0.2402 -42.0628 93.4145)" class="st3" width="2.25" height="3.78"/>
		<rect x="44.39" y="59.88" class="st0" width="20.08" height="18.23"/>
		<g>
			<defs>
				<rect id="SVGID_00000081648957447174711480000013770091586052636065_" x="44.39" y="59.88" width="20.08" height="18.23"/>
			</defs>
			<clipPath id="SVGID_00000176725679410221675280000002411904783029433257_">
				<use xlink:href="#SVGID_00000081648957447174711480000013770091586052636065_"  style="overflow:visible;"/>
			</clipPath>
			<g style="clip-path:url(#SVGID_00000176725679410221675280000002411904783029433257_);">
				<rect x="44.39" y="59.88" class="st2" width="20.08" height="18.23"/>
			</g>
		</g>
		<rect x="44.39" y="59.88" class="st0" width="14.31" height="18.23"/>
		<rect x="49.92" y="59.88" class="st3" width="3.07" height="5.09"/>
		<rect x="53.78" y="66.46" class="st3" width="3.56" height="1.82"/>
		
			<rect x="52.48" y="71.69" transform="matrix(0.2402 -0.9707 0.9707 0.2402 -30.6957 107.9397)" class="st3" width="2.25" height="3.78"/>
		<rect x="59.35" y="59.88" class="st0" width="20.08" height="18.23"/>
		<g>
			<defs>
				<rect id="SVGID_00000089542011516169580580000014238223757346111632_" x="59.35" y="59.88" width="20.08" height="18.23"/>
			</defs>
			<clipPath id="SVGID_00000132089765778902625120000005706361836271759263_">
				<use xlink:href="#SVGID_00000089542011516169580580000014238223757346111632_"  style="overflow:visible;"/>
			</clipPath>
			<g style="clip-path:url(#SVGID_00000132089765778902625120000005706361836271759263_);">
				<rect x="59.35" y="59.88" class="st2" width="20.08" height="18.23"/>
			</g>
		</g>
		<rect x="59.35" y="59.88" class="st0" width="14.31" height="18.23"/>
		<rect x="64.89" y="59.88" class="st3" width="3.07" height="5.09"/>
		<rect x="68.75" y="66.46" class="st3" width="3.56" height="1.82"/>
		
			<rect x="67.44" y="71.69" transform="matrix(0.2402 -0.9707 0.9707 0.2402 -19.3268 122.4673)" class="st3" width="2.25" height="3.78"/>
		<rect x="14.46" y="84.9" class="st0" width="20.08" height="18.23"/>
		<g>
			<defs>
				<rect id="SVGID_00000039852223435969304920000013607615684400369080_" x="14.46" y="84.9" width="20.08" height="18.23"/>
			</defs>
			<clipPath id="SVGID_00000056385555748194752420000011197936408423792803_">
				<use xlink:href="#SVGID_00000039852223435969304920000013607615684400369080_"  style="overflow:visible;"/>
			</clipPath>
			<g style="clip-path:url(#SVGID_00000056385555748194752420000011197936408423792803_);">
				<rect x="14.46" y="84.9" class="st2" width="20.08" height="18.23"/>
			</g>
		</g>
		<rect x="14.46" y="84.9" class="st0" width="14.31" height="18.23"/>
		<rect x="20" y="84.9" class="st3" width="3.07" height="5.09"/>
		<rect x="23.86" y="91.48" class="st3" width="3.56" height="1.82"/>
		
			<rect x="22.55" y="96.7" transform="matrix(0.2402 -0.9707 0.9707 0.2402 -77.7165 97.8927)" class="st3" width="2.25" height="3.78"/>
		<rect x="29.43" y="84.9" class="st0" width="20.08" height="18.23"/>
		<g>
			<defs>
				<rect id="SVGID_00000129920790798236745660000014779466955842110124_" x="29.43" y="84.9" width="20.08" height="18.23"/>
			</defs>
			<clipPath id="SVGID_00000066505708793100232160000001215315314965225394_">
				<use xlink:href="#SVGID_00000129920790798236745660000014779466955842110124_"  style="overflow:visible;"/>
			</clipPath>
			<g style="clip-path:url(#SVGID_00000066505708793100232160000001215315314965225394_);">
				<rect x="29.43" y="84.9" class="st2" width="20.08" height="18.23"/>
			</g>
		</g>
		<rect x="29.43" y="84.9" class="st0" width="14.31" height="18.23"/>
		<rect x="34.96" y="84.9" class="st3" width="3.07" height="5.09"/>
		<rect x="38.82" y="91.48" class="st3" width="3.56" height="1.82"/>
		
			<rect x="37.52" y="96.7" transform="matrix(0.2402 -0.9707 0.9707 0.2402 -66.3475 112.4203)" class="st3" width="2.25" height="3.78"/>
		<rect x="44.39" y="84.9" class="st0" width="20.08" height="18.23"/>
		<g>
			<defs>
				<rect id="SVGID_00000052825645198830559900000015555869390948400313_" x="44.39" y="84.9" width="20.08" height="18.23"/>
			</defs>
			<clipPath id="SVGID_00000060013583617344939600000015871983978941231789_">
				<use xlink:href="#SVGID_00000052825645198830559900000015555869390948400313_"  style="overflow:visible;"/>
			</clipPath>
			<g style="clip-path:url(#SVGID_00000060013583617344939600000015871983978941231789_);">
				<rect x="44.39" y="84.9" class="st2" width="20.08" height="18.23"/>
			</g>
		</g>
		<rect x="44.39" y="84.9" class="st0" width="14.31" height="18.23"/>
		<rect x="49.92" y="84.9" class="st3" width="3.07" height="5.09"/>
		<rect x="53.78" y="91.48" class="st3" width="3.56" height="1.82"/>
		
			<rect x="52.48" y="96.7" transform="matrix(0.2402 -0.9707 0.9707 0.2402 -54.9804 126.9456)" class="st3" width="2.25" height="3.78"/>
		<rect x="59.35" y="84.9" class="st0" width="20.08" height="18.23"/>
		<g>
			<defs>
				<rect id="SVGID_00000035514695441240718060000006016921917442944684_" x="59.35" y="84.9" width="20.08" height="18.23"/>
			</defs>
			<clipPath id="SVGID_00000181070544214846175390000012375719267408798356_">
				<use xlink:href="#SVGID_00000035514695441240718060000006016921917442944684_"  style="overflow:visible;"/>
			</clipPath>
			<g style="clip-path:url(#SVGID_00000181070544214846175390000012375719267408798356_);">
				<rect x="59.35" y="84.9" class="st2" width="20.08" height="18.23"/>
			</g>
		</g>
		<rect x="59.35" y="84.9" class="st0" width="14.31" height="18.23"/>
		<rect x="64.89" y="84.9" class="st3" width="3.07" height="5.09"/>
		<rect x="68.75" y="91.48" class="st3" width="3.56" height="1.82"/>
		
			<rect x="67.44" y="96.7" transform="matrix(0.2402 -0.9707 0.9707 0.2402 -43.6133 141.4709)" class="st3" width="2.25" height="3.78"/>
		<rect x="14.46" y="109.92" class="st0" width="20.08" height="18.23"/>
		<g>
			<defs>
				<rect id="SVGID_00000047767186878566133070000010912264845396117916_" x="14.46" y="109.92" width="20.08" height="18.23"/>
			</defs>
			<clipPath id="SVGID_00000163789611339758075040000011360193570282958005_">
				<use xlink:href="#SVGID_00000047767186878566133070000010912264845396117916_"  style="overflow:visible;"/>
			</clipPath>
			<g style="clip-path:url(#SVGID_00000163789611339758075040000011360193570282958005_);">
				<rect x="14.46" y="109.92" class="st2" width="20.08" height="18.23"/>
			</g>
		</g>
		<rect x="14.46" y="109.92" class="st0" width="14.31" height="18.23"/>
		<rect x="20" y="109.92" class="st3" width="3.07" height="5.09"/>
		<rect x="23.86" y="116.49" class="st3" width="3.56" height="1.82"/>
		
			<rect x="22.55" y="121.72" transform="matrix(0.2402 -0.9707 0.9707 0.2402 -102.0012 116.8986)" class="st3" width="2.25" height="3.78"/>
		<rect x="29.43" y="109.92" class="st0" width="20.08" height="18.23"/>
		<g>
			<defs>
				<rect id="SVGID_00000080166821868729531970000007567139581057994926_" x="29.43" y="109.92" width="20.08" height="18.23"/>
			</defs>
			<clipPath id="SVGID_00000060736955016873514610000005494724540119031202_">
				<use xlink:href="#SVGID_00000080166821868729531970000007567139581057994926_"  style="overflow:visible;"/>
			</clipPath>
			<g style="clip-path:url(#SVGID_00000060736955016873514610000005494724540119031202_);">
				<rect x="29.43" y="109.92" class="st2" width="20.08" height="18.23"/>
			</g>
		</g>
		<rect x="29.43" y="109.92" class="st0" width="14.31" height="18.23"/>
		<rect x="34.96" y="109.92" class="st3" width="3.07" height="5.09"/>
		<rect x="38.82" y="116.49" class="st3" width="3.56" height="1.82"/>
		
			<rect x="37.51" y="121.72" transform="matrix(0.2402 -0.9707 0.9707 0.2402 -90.6322 131.4261)" class="st3" width="2.25" height="3.78"/>
		<rect x="44.39" y="109.92" class="st0" width="20.08" height="18.23"/>
		<g>
			<defs>
				<rect id="SVGID_00000065787637646606157170000017223025628565463739_" x="44.39" y="109.92" width="20.08" height="18.23"/>
			</defs>
			<clipPath id="SVGID_00000100353639694977914490000006297811669734179489_">
				<use xlink:href="#SVGID_00000065787637646606157170000017223025628565463739_"  style="overflow:visible;"/>
			</clipPath>
			<g style="clip-path:url(#SVGID_00000100353639694977914490000006297811669734179489_);">
				<rect x="44.39" y="109.92" class="st2" width="20.08" height="18.23"/>
			</g>
		</g>
		<rect x="44.39" y="109.92" class="st0" width="14.31" height="18.23"/>
		<rect x="49.92" y="109.92" class="st3" width="3.07" height="5.09"/>
		<rect x="53.78" y="116.49" class="st3" width="3.56" height="1.82"/>
		
			<rect x="52.48" y="121.72" transform="matrix(0.2402 -0.9707 0.9707 0.2402 -79.2651 145.9514)" class="st3" width="2.25" height="3.78"/>
		<rect x="59.35" y="109.92" class="st0" width="20.08" height="18.23"/>
		<g>
			<defs>
				<rect id="SVGID_00000029726423676633382760000001696823666159212431_" x="59.35" y="109.92" width="20.08" height="18.23"/>
			</defs>
			<clipPath id="SVGID_00000158712846484978247940000016493070416752871599_">
				<use xlink:href="#SVGID_00000029726423676633382760000001696823666159212431_"  style="overflow:visible;"/>
			</clipPath>
			<g style="clip-path:url(#SVGID_00000158712846484978247940000016493070416752871599_);">
				<rect x="59.35" y="109.92" class="st2" width="20.08" height="18.23"/>
			</g>
		</g>
		<rect x="59.35" y="109.92" class="st0" width="14.31" height="18.23"/>
		<rect x="64.89" y="109.92" class="st3" width="3.07" height="5.09"/>
		<rect x="68.75" y="116.49" class="st3" width="3.56" height="1.82"/>
		
			<rect x="67.44" y="121.72" transform="matrix(0.2402 -0.9707 0.9707 0.2402 -67.8979 160.4767)" class="st3" width="2.25" height="3.78"/>
		<rect x="11.15" y="53.18" class="st15" width="70.14" height="3.27"/>
		<rect x="11.15" y="77.5" class="st15" width="70.14" height="3.27"/>
		<rect x="11.15" y="101.81" class="st15" width="70.14" height="3.27"/>
		<rect x="11.15" y="126.13" class="st15" width="70.14" height="3.27"/>
		<rect x="91.58" y="39.39" class="st16" width="3.04" height="99.37"/>
		<rect x="26.82" y="39.39" class="st16" width="3.04" height="99.37"/>
		<rect x="79.66" y="53.18" class="st17" width="14.26" height="3.27"/>
		<rect x="79.66" y="77.5" class="st17" width="14.26" height="3.27"/>
		<rect x="79.66" y="101.81" class="st17" width="14.26" height="3.27"/>
		<rect x="79.66" y="126.13" class="st17" width="14.26" height="3.27"/>
		<rect x="10.92" y="39.39" class="st15" width="3.04" height="99.37"/>
		<rect x="44.58" y="39.39" class="st15" width="3.04" height="99.37"/>
		<rect x="78.25" y="39.39" class="st15" width="3.04" height="99.37"/>
	</g>
	<g id="freepik--boxes-1--inject-229">
		<rect x="51.3" y="73.92" class="st0" width="23.85" height="21.66"/>
		<g>
			<defs>
				<rect id="SVGID_00000038415485546784690880000010647126655096146058_" x="51.3" y="73.92" width="23.85" height="21.66"/>
			</defs>
			<clipPath id="SVGID_00000133524488930290728540000008163998437090373515_">
				<use xlink:href="#SVGID_00000038415485546784690880000010647126655096146058_"  style="overflow:visible;"/>
			</clipPath>
			<g style="clip-path:url(#SVGID_00000133524488930290728540000008163998437090373515_);">
				<rect x="51.3" y="73.92" class="st2" width="23.85" height="21.66"/>
			</g>
		</g>
		<rect x="51.3" y="73.92" class="st19" width="23.85" height="21.66"/>
		<rect x="51.3" y="73.92" class="st20" width="17" height="21.66"/>
		<rect x="57.87" y="73.92" class="st21" width="3.65" height="6.05"/>
		<rect x="62.45" y="81.73" class="st3" width="4.23" height="2.16"/>
		
			<rect x="60.9" y="87.94" transform="matrix(0.2402 -0.9707 0.9707 0.2402 -40.2603 128.9449)" class="st3" width="2.68" height="4.49"/>
		<rect x="36.95" y="117.09" class="st0" width="23.85" height="21.66"/>
		<g>
			<defs>
				<rect id="SVGID_00000003077254421766299390000006485547786536487574_" x="36.95" y="117.09" width="23.85" height="21.66"/>
			</defs>
			<clipPath id="SVGID_00000072260072880094164850000011090682055338304404_">
				<use xlink:href="#SVGID_00000003077254421766299390000006485547786536487574_"  style="overflow:visible;"/>
			</clipPath>
			<g style="clip-path:url(#SVGID_00000072260072880094164850000011090682055338304404_);">
				<rect x="36.95" y="117.09" class="st2" width="23.85" height="21.66"/>
			</g>
		</g>
		<rect x="36.95" y="117.09" class="st19" width="23.85" height="21.66"/>
		<rect x="36.95" y="117.09" class="st20" width="17" height="21.66"/>
		<rect x="43.52" y="117.09" class="st21" width="3.65" height="6.05"/>
		<rect x="38.6" y="134.84" class="st3" width="4.23" height="2.16"/>
		
			<rect x="47.89" y="123.39" transform="matrix(0.2402 -0.9707 0.9707 0.2402 -84.5597 143.2451)" class="st3" width="2.68" height="4.49"/>
		<rect x="54.49" y="117.09" class="st0" width="23.85" height="21.66"/>
		<g>
			<defs>
				<rect id="SVGID_00000099651640479905507300000005000160379653330104_" x="54.49" y="117.09" width="23.85" height="21.66"/>
			</defs>
			<clipPath id="SVGID_00000015350339590032236720000007344031180169586591_">
				<use xlink:href="#SVGID_00000099651640479905507300000005000160379653330104_"  style="overflow:visible;"/>
			</clipPath>
			<g style="clip-path:url(#SVGID_00000015350339590032236720000007344031180169586591_);">
				<rect x="54.49" y="117.09" class="st2" width="23.85" height="21.66"/>
			</g>
		</g>
		<rect x="54.49" y="117.09" class="st19" width="23.85" height="21.66"/>
		<rect x="54.49" y="117.09" class="st20" width="17" height="21.66"/>
		<rect x="61.06" y="117.09" class="st21" width="3.65" height="6.05"/>
		<rect x="65.65" y="124.91" class="st3" width="4.23" height="2.16"/>
		
			<rect x="56.61" y="121.93" transform="matrix(0.2402 -0.9707 0.9707 0.2402 -76.5054 150.5985)" class="st3" width="2.68" height="4.49"/>
		<rect x="72.26" y="117.09" class="st0" width="23.85" height="21.66"/>
		<g>
			<defs>
				<rect id="SVGID_00000041287839622599371160000009067184659637591485_" x="72.26" y="117.09" width="23.85" height="21.66"/>
			</defs>
			<clipPath id="SVGID_00000119798107617138341730000008928116338370820274_">
				<use xlink:href="#SVGID_00000041287839622599371160000009067184659637591485_"  style="overflow:visible;"/>
			</clipPath>
			<g style="clip-path:url(#SVGID_00000119798107617138341730000008928116338370820274_);">
				<rect x="72.26" y="117.09" class="st2" width="23.85" height="21.66"/>
			</g>
		</g>
		<rect x="72.26" y="117.09" class="st19" width="23.85" height="21.66"/>
		<rect x="72.26" y="117.09" class="st20" width="17" height="21.66"/>
		<rect x="78.83" y="117.09" class="st21" width="3.65" height="6.05"/>
		<rect x="83.42" y="124.91" class="st3" width="4.23" height="2.16"/>
		
			<rect x="74.38" y="121.93" transform="matrix(0.2402 -0.9707 0.9707 0.2402 -63.0075 167.8475)" class="st3" width="2.68" height="4.49"/>
		<rect x="45.18" y="95.49" class="st0" width="23.85" height="21.66"/>
		<g>
			<defs>
				<rect id="SVGID_00000174601796752064033060000018028734677742437281_" x="45.18" y="95.49" width="23.85" height="21.66"/>
			</defs>
			<clipPath id="SVGID_00000008143145072418642380000001916486598196575663_">
				<use xlink:href="#SVGID_00000174601796752064033060000018028734677742437281_"  style="overflow:visible;"/>
			</clipPath>
			<g style="clip-path:url(#SVGID_00000008143145072418642380000001916486598196575663_);">
				<rect x="45.18" y="95.49" class="st2" width="23.85" height="21.66"/>
			</g>
		</g>
		<rect x="45.18" y="95.49" class="st19" width="23.85" height="21.66"/>
		<rect x="45.18" y="95.49" class="st20" width="17" height="21.66"/>
		<rect x="51.74" y="95.49" class="st21" width="3.65" height="6.05"/>
		<rect x="56.33" y="103.3" class="st3" width="4.23" height="2.16"/>
		
			<rect x="47.3" y="100.32" transform="matrix(0.2402 -0.9707 0.9707 0.2402 -62.6158 125.1429)" class="st3" width="2.68" height="4.49"/>
		<rect x="64.11" y="95.49" class="st0" width="23.85" height="21.66"/>
		<g>
			<defs>
				<rect id="SVGID_00000052788311298630829460000006851537149332822450_" x="64.11" y="95.49" width="23.85" height="21.66"/>
			</defs>
			<clipPath id="SVGID_00000158714415217090016280000013984672891388282251_">
				<use xlink:href="#SVGID_00000052788311298630829460000006851537149332822450_"  style="overflow:visible;"/>
			</clipPath>
			<g style="clip-path:url(#SVGID_00000158714415217090016280000013984672891388282251_);">
				<rect x="64.11" y="95.49" class="st2" width="23.85" height="21.66"/>
			</g>
		</g>
		<rect x="64.11" y="95.49" class="st19" width="23.85" height="21.66"/>
		<rect x="64.11" y="95.49" class="st20" width="17" height="21.66"/>
		<rect x="70.68" y="95.49" class="st21" width="3.65" height="6.05"/>
		<rect x="75.27" y="103.3" class="st3" width="4.23" height="2.16"/>
		
			<rect x="67.29" y="105.45" transform="matrix(0.2402 -0.9707 0.9707 0.2402 -52.4008 148.4386)" class="st3" width="2.68" height="4.49"/>
	</g>
	<g id="freepik--Floor--inject-229">
		<line class="st19" x1="3.53" y1="138.75" x2="105.94" y2="138.75"/>
	</g>
	<g id="freepik--Character--inject-229">
		<path class="st21" d="M21.72,131.77c0,0-0.98,1.99-1.68,3.12c-0.7,1.13-2,2.61-1.87,3.91c0.13,1.3,1.49,1.44,2.89,0.7
			c1.4-0.74,2.66-2.24,3.04-3.36s1.59-2.05,1.59-3.31s-0.09-1.4-0.56-1.54C24.66,131.17,22.18,130.98,21.72,131.77z"/>
		<path class="st27" d="M25.68,132.84c0-0.18,0-0.34,0-0.48c-0.13,0.39-0.29,0.77-0.47,1.14c-0.51,1.03-1.26,1.64-1.54,2.89
			c-0.28,1.25-2.05,2.7-3.59,3.07c-1.54,0.37-1.87-0.88-1.87-0.88h-0.06c-0.01,0.08-0.01,0.16,0,0.23c0.14,1.3,1.49,1.44,2.89,0.7
			c1.4-0.74,2.66-2.24,3.04-3.36S25.68,134.1,25.68,132.84z"/>
		<path class="st19" d="M21.91,132.61c0,0,0.56,0.79,2.42,0.56"/>
		<path class="st19" d="M21.86,133.26c0.55,0.44,1.26,0.64,1.96,0.56"/>
		<path class="st19" d="M21.67,133.82c0.42,0.45,1.03,0.68,1.64,0.61"/>
		<path class="st19" d="M21.48,134.61c0,0,0.33,0.65,1.59,0.51"/>
		<path class="st28" d="M33.65,133.53c0.7,1.1,1.67,2.02,2.81,2.66c1.82,0.98,4.15,1.64,4.33,2.1c0.16,0.35,0.04,0.77-0.28,0.98
			c-0.23,0.14-3.68,0.23-5.5-0.09c-1.03-0.22-2.07-0.31-3.12-0.28c-0.84,0-2.66,0.23-2.89-0.79s0.37-4.75,0.37-4.75
			S32.11,134.15,33.65,133.53z"/>
		<path class="st29" d="M40.5,139.27c0.25-0.16,0.38-0.45,0.34-0.74c-0.72,0.18-1.46,0.3-2.2,0.37c-1.87,0.19-4.66-0.42-6.85-0.51
			c-1.61-0.07-2.49-0.44-2.84-0.63c0.01,0.12,0.02,0.23,0.04,0.35c0.23,1.03,2.05,0.79,2.89,0.79c1.05-0.03,2.1,0.06,3.12,0.28
			C36.82,139.5,40.26,139.41,40.5,139.27z"/>
		<path class="st30" d="M34.35,134.61c-0.36,0.29-0.65,0.65-0.84,1.07"/>
		<path class="st30" d="M34.91,135.31c0,0-0.61,0.51-0.61,0.84"/>
		<path class="st30" d="M35.51,135.78c-0.16,0.26-0.28,0.55-0.37,0.84"/>
		<path class="st30" d="M36.44,136.2c0,0-0.37,0.33-0.37,0.65"/>
		<path class="st27" d="M20.49,84.04c0,0-1.48,7.05-1.37,10.91s5.38,13.44,5.38,13.44s-2.81,6.9-2.92,9.94s0.12,12.82,0.12,12.82
			s1.17,0.68,2.23,0.68s2.32-0.53,2.32-0.53l2.69-10.52l0.12,12.74c0.78,0.46,1.67,0.7,2.57,0.7c0.92-0.01,1.82-0.29,2.57-0.82
			c0,0,1.87-13.44,2.1-15.67c0.23-2.22,1.75-8.88,1.87-9.35c0.12-0.47,2.34-7.83,2.34-13.79s-1.71-9.55-1.71-9.55
			s-6-1.33-10.44-1.44C25.73,83.53,23.09,83.68,20.49,84.04z"/>
		<path class="st31" d="M29.76,119.03c0,0,3.04-8.65,3.04-10.76s-1.99-15.2-1.99-15.2"/>
		<path class="st31" d="M31.63,97.06c0,0,1.75-1.99,2.34-3.16"/>
		<path class="st21" d="M38.57,66.12c0,0,2.42,1.4,3.74,3.51c1.33,2.1,4.21,10.99,4.05,13.25c-0.16,2.26-0.86,2.89-2.88,2.49
			c-2.03-0.39-2.18-2.65-2.65-4.52c-0.47-1.87-2.96-13.72-2.96-13.72l-0.08-1.09L38.57,66.12z"/>
		<path class="st32" d="M46.36,82.87c0.08-1.15-0.63-4.02-1.52-6.84l-4.93,0.68c0.41,1.92,0.77,3.53,0.92,4.12
			c0.47,1.87,0.62,4.13,2.65,4.52S46.21,85.13,46.36,82.87z"/>
		<path class="st21" d="M22.43,65.42c0,0-1.87,0.39-2.34,3.66c-0.47,3.27,0.62,8.65,0.62,8.65l-0.23,6.31c0,0,7.79,2.03,10.99,2.03
			s7.33-1.01,7.33-1.01s-1.71-15.74-2.03-17.07c-0.31-1.32-1.71-2.65-2.88-3.51c-1.17-0.86-4.13-0.78-5.85-0.31
			c-1.71,0.47-4.13,1.4-4.13,1.4L22.43,65.42z"/>
		<path class="st20" d="M28.05,63.23c0,0,1.64,6.63,1.79,11.15c0.16,4.52-0.7,18.55-0.7,18.55s-3.66,0.16-6.31-0.31
			s-4.52-0.7-4.52-0.7l2.34-14.57c0,0,3.2,0.23,3.9-2.03s-0.23-6.78-1.09-8.18c-0.86-1.4-1.01-1.71-1.01-1.71L28.05,63.23z"/>
		<path class="st20" d="M35.14,69.39c0,0,1.72,6.55,1.56,13.09c-0.16,6.55-0.23,10.05-0.23,10.05s3.74-0.23,5.85-1.09
			c0,0-1.17-15.27-2.26-19.8c-1.09-4.52-1.48-5.53-1.48-5.53l-4.37-1.79L35.14,69.39z"/>
		<path class="st21" d="M29.72,61.96c0,0-1.64,0.3-2.07,1.16s1.7,7.84,1.7,7.84l3.1-2.55l3.83,2.19c0,0-0.73-5.29-2.31-7.11
			C32.4,61.66,29.72,61.96,29.72,61.96z"/>
		<path class="st32" d="M29.06,57.52c0,0-0.06,6.14,0.61,7.72c0.67,1.58,2.43,3.89,3.1,3.53c0.67-0.36,0.85-4.8,0.97-5.11
			c0.12-0.3,0.61-2.81,0.61-2.81S29.97,59.65,29.06,57.52z"/>
		<path class="st27" d="M29.06,57.52c0,0-0.02,2.46,0.13,4.68c0.7,0.83,1.68,1.36,2.75,1.51c0.6,0.09,1.2,0.08,1.8-0.02
			c0-0.01,0-0.01,0-0.02c0.12-0.3,0.61-2.81,0.61-2.81S29.97,59.65,29.06,57.52z"/>
		<path class="st21" d="M35.89,78.64l-0.47,0.29l-2.71-4.42c-0.08-0.13-0.04-0.3,0.09-0.37l0,0c0.13-0.08,0.29-0.04,0.37,0.09
			c0,0,0,0,0,0L35.89,78.64z"/>
		<path class="st21" d="M22.43,65.42c0,0-1.79,0.15-2.88,2.26s-2.81,12-3.12,14.89c-0.31,2.88,1.4,2.65,1.64,2.65
			s12.63-4.13,12.63-4.13l4.21-0.47c0,0-0.47,0.39-0.08,0.39c0.39,0,1.17-0.78,1.48-1.25s-0.94-3.04-1.4-3.35
			c-0.47-0.31-4.68,2.81-4.68,2.81l-8.18,0.54l2.1-7.17"/>
		<path class="st32" d="M34.9,76.4c-0.47-0.31-4.68,2.81-4.68,2.81l-8.18,0.54l0.52-1.77l-5.23-1.18c-0.43,2.4-0.77,4.62-0.9,5.75
			c-0.31,2.88,1.4,2.65,1.64,2.65s12.63-4.13,12.63-4.13l4.21-0.47c0,0-0.47,0.39-0.08,0.39c0.39,0,1.17-0.78,1.48-1.25
			S35.37,76.72,34.9,76.4z"/>
		<path class="st33" d="M34.9,76.4c-0.47-0.31-4.68,2.81-4.68,2.81l-1.19,0.08c0,0.75,0.18,1.5,0.54,2.16l1.12-0.37l4.21-0.47
			c0,0-0.47,0.39-0.08,0.39c0.39,0,1.17-0.78,1.48-1.25S35.37,76.72,34.9,76.4z"/>
		<polygon class="st27" points="39.03,72.74 31.08,83.89 41.53,83.5 49.09,73.21 		"/>
		<polygon class="st27" points="42.54,72.41 41.93,73.43 46.5,73.53 47.11,72.51 		"/>
		<path class="st33" d="M45.63,79.07c-0.36,0.13-0.73,0.22-1.11,0.26c-0.47,0.02-0.9,0.26-0.9,0.49c0,0.24,0.83,0.28,1.43,0.28
			c0.6,0,1.07-0.13,1.17-0.51C46.32,79.19,46.19,78.85,45.63,79.07z"/>
		<path class="st33" d="M46.17,78.02c-0.45,0.17-0.92,0.28-1.4,0.33c-0.6,0.03-1.14,0.32-1.14,0.62s1.06,0.35,1.82,0.35
			c0.76,0,1.36-0.16,1.49-0.65S46.88,77.75,46.17,78.02z"/>
		<path class="st33" d="M46.6,77.13c-0.45,0.17-0.92,0.28-1.4,0.33c-0.6,0.03-1.14,0.32-1.14,0.62s1.06,0.35,1.82,0.35
			c0.76,0,1.36-0.16,1.49-0.65S47.31,76.86,46.6,77.13z"/>
		<path class="st33" d="M46.89,76.12c-0.45,0.16-0.92,0.27-1.4,0.32c-0.6,0.03-1.14,0.32-1.14,0.62s1.06,0.35,1.82,0.35
			s1.36-0.16,1.49-0.65S47.6,75.85,46.89,76.12z"/>
		<path class="st33" d="M21.46,128.93c0,0-0.05,2.42,0.05,2.81c0.1,0.38,1.79,0.87,2.86,0.87c1.06,0,1.74-0.23,1.94-0.53
			c0.19-0.3,0.53-2.28,0.53-2.28S23.05,130.58,21.46,128.93z"/>
		<path class="st27" d="M26.82,55.58c-1.54-0.54-3.26-0.22-4.5,0.85c-2.13,1.82-0.23,5.11,2.01,5.47c2.24,0.36,3.71-0.67,4.07-2.31
			C28.76,57.95,28.16,55.52,26.82,55.58z"/>
		<path class="st32" d="M37.57,55.03c0,0-0.3,3.04-0.91,5.17c-0.61,2.13-2.19,2.92-4.44,2.61c-2.25-0.3-3.53-2.13-4.26-4.26
			c-0.73-2.13-0.79-5.05-0.79-5.05L37.57,55.03z"/>
		<path class="st27" d="M27.49,54.97c0,0,0.73,0.67,2.37-0.49c1.64-1.16,0.85-1.7,0.85-1.7l-3.89,0.23L27.49,54.97z"/>
		<path class="st19" d="M35.15,55.76c0,0-0.3,0.91-0.12,1.22s0.67,0.73,0.12,1.22c-0.35,0.34-0.91,0.33-1.25-0.01
			c-0.06-0.06-0.12-0.14-0.16-0.22"/>
		<path class="st19" d="M31.76,58.48c0,0,0.94,1.21,2.71,0.65"/>
		<path class="st34" d="M33.08,56.13c0,0.34-0.14,0.61-0.3,0.61c-0.17,0-0.3-0.27-0.3-0.61c0-0.34,0.14-0.61,0.3-0.61
			C32.95,55.52,33.08,55.79,33.08,56.13z"/>
		<path class="st34" d="M36.43,56.61c0,0.34-0.14,0.61-0.3,0.61c-0.17,0-0.3-0.27-0.3-0.61c0-0.34,0.14-0.61,0.3-0.61
			C36.29,56,36.43,56.28,36.43,56.61z"/>
		<path class="st19" d="M31.81,54.79c0,0,0.85-0.97,1.95,0"/>
		<path class="st19" d="M35.7,55.28c0.39-0.28,0.92-0.26,1.28,0.06"/>
		<path class="st20" d="M26.58,53.76l11.31,1.22c0,0-0.12-5.71-0.18-6.68c-0.06-0.97-4.56-2.31-6.31-2.19
			c-1.75,0.12-3.95,1.16-4.32,1.64C26.71,48.22,26.58,53.76,26.58,53.76z"/>
		<path class="st20" d="M31.44,54.36l10.03,1.34c0,0-2.67-2.31-4.8-2.49S31.44,54.36,31.44,54.36z"/>
		<path class="st32" d="M27.91,55.4c0,0-0.23-1.88-1.28-1.88s-0.55,1.52-0.43,2.49s1.28,1.22,1.7,0.85"/>
		<path class="st33" d="M28.96,131.45l0.14,2.28c0,0,0.64,0.48,2.52,0.51c1.88,0.03,2.57-0.82,2.57-0.82l0.38-2.45
			C34.58,130.96,31.09,132.61,28.96,131.45z"/>
	</g>
</g>
<g id="freepik--Device--inject-2">
	<path class="st35" d="M135.12,143.29c0,0.64-14.65,1.16-32.72,1.16s-32.72-0.52-32.72-1.16s14.65-1.15,32.73-1.15
		S135.12,142.65,135.12,143.29z"/>
	<path class="st21" d="M100.04,132.9c0,0,1.59,6.84,0.9,7.97c-0.91,1.47-10.55,2.36-10.55,2.36h21.27c0,0,2.67-0.75,1.86-2.89
		c-0.62-1.66-3.6-7.43-3.6-7.43L100.04,132.9z"/>
	<path class="st21" d="M99.57,132.9c0,0,1.7,6.9,0.9,7.97s-10.09,1.88-10.09,1.88h21.37c0,0,1.8-0.73,1.3-2.42
		c-0.5-1.69-3.59-7.43-3.59-7.43H99.57z"/>
	<path class="st27" d="M109.46,132.9h-9.89c0,0,1.01,4.09,1.1,6.46h12.01C111.71,137.08,109.46,132.9,109.46,132.9z"/>
	<rect x="90.39" y="142.78" class="st21" width="21.27" height="0.44"/>
	<path class="st21" d="M74.78,85.44h60.93c0.9,0,1.62,0.73,1.62,1.62v44.88c0,0.9-0.73,1.62-1.62,1.62H74.78
		c-0.9,0-1.62-0.73-1.62-1.62V87.07C73.15,86.17,73.88,85.44,74.78,85.44z"/>
	<path class="st27" d="M73.27,85.44h60.93c0.9,0,1.62,0.73,1.62,1.62v44.88c0,0.9-0.73,1.62-1.62,1.62H73.27
		c-0.9,0-1.62-0.73-1.62-1.62V87.07C71.64,86.17,72.37,85.44,73.27,85.44z"/>
	<path class="st21" d="M71.64,126.09h64.17l0,0v5.86c0,0.9-0.73,1.62-1.62,1.62c0,0,0,0,0,0H73.27c-0.9,0-1.62-0.73-1.62-1.62l0,0
		V126.09L71.64,126.09z"/>
	<rect x="74.87" y="88.44" class="st21" width="57.72" height="34"/>
	<rect x="77.76" y="108.01" class="st0" width="48.99" height="2.15"/>
	<rect x="77.76" y="112.08" class="st0" width="48.99" height="2.15"/>
	<line class="st30" x1="77.76" y1="96.45" x2="86.38" y2="96.45"/>
	<line class="st30" x1="105.71" y1="96.45" x2="114.33" y2="96.45"/>
	<line class="st30" x1="105.71" y1="97.72" x2="114.33" y2="97.72"/>
	<line class="st30" x1="105.71" y1="98.98" x2="114.33" y2="98.98"/>
	<line class="st30" x1="77.76" y1="97.72" x2="86.38" y2="97.72"/>
	<line class="st30" x1="77.76" y1="119" x2="86.38" y2="119"/>
	<line class="st30" x1="77.76" y1="120.17" x2="86.38" y2="120.17"/>
	<line class="st30" x1="77.76" y1="98.99" x2="86.38" y2="98.99"/>
	<rect x="77.76" y="100.26" class="st0" width="20.66" height="2.28"/>
	<rect x="115.78" y="97.98" class="st0" width="10.9" height="1.14"/>
	<rect x="115.78" y="95.06" class="st30" width="10.9" height="4.06"/>
	<rect x="115.78" y="96.2" class="st30" width="10.9" height="1.77"/>
	<line class="st30" x1="117.44" y1="95.1" x2="117.44" y2="99.07"/>
	<rect x="77.76" y="104.07" class="st30" width="48.99" height="13.74"/>
	<rect x="77.76" y="104.07" class="st36" width="48.99" height="2.15"/>
	<line class="st30" x1="112.35" y1="104.12" x2="112.35" y2="117.79"/>
	<line class="st30" x1="117.68" y1="104.12" x2="117.68" y2="117.79"/>
	<rect x="112.31" y="118.63" class="st0" width="5.35" height="3.18"/>
	<path class="st34" d="M114.33,119.84v0.24c0,0.3-0.14,0.46-0.44,0.46h-0.14v0.71h-0.29v-1.88h0.43
		C114.19,119.37,114.33,119.54,114.33,119.84z M113.75,119.64v0.64h0.14c0.1,0,0.15-0.04,0.15-0.18v-0.28
		c0-0.13-0.05-0.18-0.15-0.18L113.75,119.64z"/>
	<path class="st34" d="M115.49,121.25h-0.3l-0.05-0.34h-0.36l-0.05,0.34h-0.27l0.3-1.88h0.43L115.49,121.25z M114.82,120.65h0.29
		l-0.14-0.96L114.82,120.65z"/>
	<path class="st34" d="M115.88,120.63l-0.38-1.26h0.33l0.23,0.86l0.22-0.86h0.28l-0.37,1.26v0.62h-0.29L115.88,120.63z"/>
	<rect x="74.87" y="88.44" class="st20" width="57.72" height="1.57"/>
	<path class="st27" d="M104.92,129.83c0-0.65-0.53-1.19-1.18-1.19s-1.19,0.53-1.19,1.18s0.53,1.19,1.18,1.19c0,0,0,0,0,0
		C104.39,131.01,104.92,130.49,104.92,129.83z"/>
	<text transform="matrix(1 0 0 1 77.5604 95.4971)" class="st34 st37 st38">BILL</text>
</g>
<g id="freepik--graduation-hat-3--inject-96">
	<path class="st28" d="M107.24,12.8c3.64,1.01,7-1.09,8.31,0.02c1.41,1.2,1.26,1.59,1.78,2.09s0.08,0.03,0.21,0.1
		c0.13,0.07,0.11,0.1,0.02-0.02c-0.09-0.12,0.46,0.31-0.09-0.2c-0.55-0.5-0.35-0.89-1.85-2.12c-1.4-1.15-4.67,0.96-8.32-0.04
		C107.19,12.62,107.18,12.68,107.24,12.8z"/>
	<path class="st28" d="M107.27,12.5c6.13,1.73,5.76-3.24,10.71,2.52c0.09,0.11,0.08,0.03,0.13,0.02c0.04-0.01,0.02,0.02,0.02-0.02
		c0.01-0.04,0.07-0.03,0-0.12c-4.96-5.72-4.7-1.01-10.8-2.58C107.3,12.38,107.29,12.43,107.27,12.5z"/>
	<path class="st28" d="M107.34,12.26c6.09,1.66,5.77-3.04,10.83,2.65c0.12,0.13,0.08,0.02,0.13,0.02s0.02,0.02,0.02-0.02
		s0.09-0.01-0.01-0.12c-5.15-5.77-4.87-1.08-10.92-2.7C107.37,12.14,107.35,12.2,107.34,12.26z"/>
	<path class="st28" d="M107.37,12.17c6.04,1.46,5.84-3.12,11.14,2.37c0.16,0.16,0.08,0.02,0.13,0.03c0.06,0.01,0.02,0.03,0.02-0.02
		c-0.01-0.05,0.11,0.02-0.02-0.12c-5.35-5.59-5.24-1-11.22-2.43C107.4,12.05,107.38,12.11,107.37,12.17z"/>
	<path class="st28" d="M107.51,11.69c-0.02,0.06-0.04,0.12-0.05,0.18c6.25,1.43,4.71-2.35,11.86,1.8c0.12,0.07,0.09-0.01,0.13-0.02
		c0.04-0.01,0.02,0,0.02,0c-0.02-0.08,0.08-0.06-0.05-0.14C112.24,9.34,113.59,13.19,107.51,11.69z"/>
	<path class="st28" d="M107.47,11.9c-0.03,0.05-0.05,0.11-0.06,0.17c6.38,1.48,4.79-2.45,11.34,2.06c0.51,0.34-0.09-0.11,0.2,0.02
		c0.01,0,0.09,0.08-0.03-0.03c-0.12-0.11,0.44,0.2-0.08-0.16C112.29,9.45,113.7,13.37,107.47,11.9z"/>
	<path class="st28" d="M107.7,11.87c4.31,0.03,7.14-1.51,10.69,0.84s-0.17-0.18,0.85,0.46l0.2,0.13c-1.9-1.33,2.94,1.84-0.89-0.7
		s-6.42-0.79-10.82-0.92C107.43,11.55,107.37,11.59,107.7,11.87z"/>
	<path class="st28" d="M107.22,12.65c5.65,1.7,6.05-3.09,10.17,1.98c0.1,0.12,0.08,0.03,0.13,0.03c0.05,0,0.02,0.02,0.03-0.02
		c0.01-0.04,0.07-0.02-0.01-0.12c-4.23-5.12-4.62-0.45-10.26-2.05C107.26,12.53,107.24,12.59,107.22,12.65z"/>
	<path class="st28" d="M95.47,24.45c0.08,0.69,0.28,1.36,0.6,1.98c0.03,0.06,0.05,0.1,0.07,0.14l0.7-0.29
		c-0.02-0.05-0.05-0.11-0.09-0.19c-1.18-2.41-0.25-5.5,0.09-6.67c1.06-3.55,3.13-5.26,4.69-6.09c1.75-0.92,3.83-1.22,5.58-0.81
		l0.17-0.74c-1.92-0.45-4.21-0.12-6.11,0.88c-1.69,0.89-3.93,2.74-5.07,6.54C95.4,21.62,95.33,23.3,95.47,24.45z"/>
	<path class="st28" d="M106.77,12.47l0.23-0.81c0.05-0.17,0.23-0.27,0.4-0.22l0.09,0.03c0.17,0.05,0.27,0.23,0.22,0.4l-0.23,0.81
		c-0.05,0.17-0.23,0.27-0.4,0.22l-0.09-0.03C106.82,12.82,106.72,12.64,106.77,12.47z"/>
	<path class="st30" d="M107.01,11.62c0,0-0.77,0.3-1.17,0.69"/>
	<path class="st30" d="M105.84,11.61c-0.41,0.17-0.77,0.44-1.06,0.77"/>
	<path class="st30" d="M104.73,11.66c-0.46,0.12-0.85,0.44-1.05,0.88"/>
	<path class="st30" d="M103.35,11.84c0,0-0.79,0.46-0.97,1.1"/>
	<path class="st30" d="M101.91,12.33c0,0-0.68,0.48-0.76,1.22"/>
	<path class="st30" d="M100.65,12.99c-0.17,0.33-0.26,0.68-0.28,1.05"/>
	<path class="st30" d="M99.61,13.75c0,0-0.15,0.34-0.14,1.07"/>
	<path class="st30" d="M98.6,14.64c-0.05,0.39-0.04,0.79,0.03,1.18"/>
	<path class="st30" d="M97.71,15.81c-0.03,0.39,0.02,0.79,0.14,1.16"/>
	<path class="st30" d="M96.99,17.09c0.04,0.36,0.15,0.7,0.34,1.01"/>
	<polygon class="st20" points="88.37,16.06 73.25,30.08 91.05,31.37 108.15,21.21 	"/>
	<polygon class="st39" points="94.9,23.08 104.88,23.1 99.9,26.11 	"/>
	<path class="st0" d="M81.25,28.11l0.8,5.22l19.23-3.15l-0.98-5.46c-0.12-0.66-0.63-1.17-1.29-1.3c-1.69-0.32-5.23-0.75-9.68,0.02
		c-4.23,0.72-6.46,2.18-7.48,3.07C81.38,26.91,81.16,27.51,81.25,28.11z"/>
	<path class="st39" d="M99,23.42c-0.56-0.11-1.32-0.22-2.25-0.3l1.23,7.6l3.29-0.53l-0.98-5.46C100.18,24.06,99.66,23.54,99,23.42z"
		/>
	<path class="st19" d="M81.25,28.11l0.8,5.22l19.23-3.15l-0.98-5.46c-0.12-0.66-0.63-1.17-1.29-1.3c-1.69-0.32-5.23-0.75-9.68,0.02
		c-4.23,0.72-6.46,2.18-7.48,3.07C81.38,26.91,81.16,27.51,81.25,28.11z"/>
	
		<ellipse transform="matrix(0.9871 -0.1602 0.1602 0.9871 -3.9007 15.0945)" class="st20" cx="91.65" cy="31.74" rx="9.73" ry="1.53"/>
	<path class="st0" d="M100.93,30.31c0.12,0.74-3.93,2.01-9.05,2.84c-5.12,0.83-9.37,0.91-9.49,0.17s3.93-2.01,9.05-2.84
		C96.56,29.64,100.81,29.57,100.93,30.31z"/>
	<path class="st40" d="M100.93,30.31c0.12,0.74-3.93,2.01-9.05,2.84c-5.12,0.83-9.37,0.91-9.49,0.17s3.93-2.01,9.05-2.84
		C96.56,29.64,100.81,29.57,100.93,30.31z"/>
	<path class="st19" d="M100.93,30.31c0.12,0.74-3.93,2.01-9.05,2.84c-5.12,0.83-9.37,0.91-9.49,0.17s3.93-2.01,9.05-2.84
		C96.56,29.64,100.81,29.57,100.93,30.31z"/>
</g>
<g id="freepik--graduation-hat-2--inject-96">
	<path class="st34" d="M139.5,45.33c-0.5-0.31-1.03-0.59-1.57-0.84c-1.62-0.79-3.64-1.78-4.77-3.74l-0.13,0.08
		c1.15,2,3.19,3,4.84,3.8c0.53,0.24,1.05,0.52,1.54,0.83c1.49,0.99,2.16,1.99,2.17,2l0.13-0.09
		C141.68,47.32,141.01,46.34,139.5,45.33z"/>
	<path class="st34" d="M142.27,46.93c0.01,0.07,0.02,0.15,0.02,0.21h0.15c0-0.07-0.01-0.15-0.02-0.22l0,0c0,0,0-0.01,0-0.02
		c-0.16-0.95-1.02-2.57-3.06-4.35c-2.26-1.98-1.95-3.31-1.95-3.33l-0.15-0.04c-0.05,0.32-0.02,0.65,0.1,0.95
		c-0.17-0.38-0.26-0.63-0.27-0.64l-0.15,0.05c0,0.02,0.7,2,2.18,3.46c0.23,0.22,0.44,0.43,0.65,0.62l0.03,0.03
		c-1.16-0.92-2.08-2.11-2.68-3.47l-0.14,0.06c0.37,0.84,0.86,1.63,1.47,2.32c-0.86-0.9-1.5-1.99-1.85-3.18l-0.15,0.03
		c0.15,0.51,0.35,1.01,0.6,1.48c-0.43-0.63-0.72-1.14-0.73-1.15l-0.13,0.08c0.01,0.02,1.33,2.26,2.45,3.28
		c0.08,0.08,0.17,0.16,0.25,0.24c-0.21-0.13-0.42-0.26-0.63-0.39c-0.97-0.95-1.74-2.08-2.26-3.34l-0.14,0.05
		c0.43,1.04,1.04,2.01,1.79,2.85c-1.4-1.14-2.03-2.88-2.04-2.9l-0.15,0.05c0,0.02,0.76,2.11,2.46,3.25c0.08,0.05,0.16,0.1,0.24,0.15
		c0.11,0.11,0.23,0.23,0.36,0.35c-0.35-0.23-0.7-0.47-1.01-0.71c-0.55-0.56-1.05-1.17-1.51-1.82l-0.13,0.09
		c0.26,0.38,0.54,0.75,0.84,1.1c-0.06-0.06-0.13-0.11-0.17-0.17c-1.03-1.01-1.02-1.76-1.02-1.77h-0.08h-0.08
		c0.02,0.29,0.1,0.57,0.25,0.82c-0.25-0.33-0.47-0.68-0.67-1.04l-0.14,0.07c0,0.01,0.58,1.15,1.91,2.57
		c0.04,0.04,0.07,0.07,0.11,0.11c-1.3-1.14-1.78-2.15-1.78-2.16l-0.14,0.06c0.33,0.63,0.76,1.2,1.27,1.7
		c-1.39-1.13-1.42-1.84-1.42-1.85h-0.15c0,0.03,0.02,0.83,1.61,2.09c0.39,0.3,0.8,0.59,1.22,0.85c0.1,0.07,0.2,0.14,0.3,0.22
		c-0.2-0.09-0.38-0.17-0.54-0.22c-1.82-0.71-2.63-2.64-2.63-2.66l-0.14,0.06c0.36,0.78,0.88,1.47,1.53,2.03
		c-0.17-0.11-0.34-0.23-0.5-0.35c-0.11-0.1-0.21-0.21-0.31-0.32c-1.1-1.32-1.33-1.63-1.33-1.63l-0.12,0.09
		c0,0.01,0.2,0.27,1.08,1.33c-0.47-0.36-0.89-0.78-1.25-1.25l-0.12,0.09c0.12,0.16,0.24,0.31,0.38,0.45l-0.1,0.09
		c0.02,0.02,1.66,1.85,3.43,2.72c1.25,0.61,2.55,1.32,3.51,2.11c0.11,0.11,0.17,0.18,0.17,0.19l0.03-0.02
		c0.17,0.15,0.33,0.31,0.48,0.47c0.3,0.4,0.5,0.7,0.51,0.71l0.08-0.05l0.06-0.02c-0.04-0.13-0.09-0.26-0.15-0.39
		c0.09,0.17,0.14,0.28,0.15,0.29l0.09-0.04h0.02l0.03,0.11l0.15-0.03c-0.02-0.11-0.05-0.22-0.08-0.33l0.05-0.02
		c-0.05-0.13-0.11-0.26-0.17-0.39c-0.08-0.25-0.17-0.5-0.28-0.75C141.98,46.17,142.15,46.54,142.27,46.93z M139.23,44.73
		c-0.13-0.08-0.3-0.18-0.5-0.3c0.3,0.13,0.6,0.28,0.88,0.45c0.37,0.28,0.7,0.6,0.98,0.96C140.18,45.42,139.73,45.05,139.23,44.73z
		 M139.42,44.44c0.32,0.18,0.62,0.38,0.9,0.6l0.13,0.17C140.13,44.94,139.79,44.68,139.42,44.44z M139.35,43.59l0.05,0.05l0,0
		L139.35,43.59z M139.8,44.07c0.05,0.06,0.1,0.12,0.15,0.17l-0.07-0.03l-0.16-0.19L139.8,44.07z M139.43,44.17h0.01l0.07,0.07
		c-0.1-0.05-0.2-0.11-0.3-0.17L139.43,44.17z M138.5,43.59l-0.11-0.09l0.2,0.13L138.5,43.59z M139.27,42.67
		c0.95,0.8,1.76,1.73,2.41,2.78c-0.1-0.12-0.24-0.3-0.38-0.48c-0.45-0.59-1.14-1.48-1.85-2.11c-0.41-0.35-0.79-0.73-1.13-1.14
		C138.61,42.05,138.93,42.37,139.27,42.67L139.27,42.67z M139.25,42.89l-0.08-0.08c0.06,0.05,0.11,0.1,0.17,0.16
		c0.19,0.17,0.37,0.35,0.55,0.54l0,0C139.68,43.32,139.47,43.11,139.25,42.89L139.25,42.89z M139.03,43.59l0.28,0.17
		c0.09,0.1,0.17,0.21,0.27,0.31l-0.04-0.02c-0.14-0.13-0.29-0.25-0.45-0.38l-0.2-0.17L139.03,43.59z M136.54,42.11
		c0.27,0.24,0.55,0.47,0.84,0.68c0.14,0.14,0.29,0.29,0.45,0.43c-0.37-0.22-0.7-0.48-0.99-0.79
		C136.73,42.32,136.64,42.21,136.54,42.11z M137.95,43.63L137.95,43.63L137.95,43.63z M136.88,43.34c0.08,0.04,0.17,0.08,0.26,0.11
		c0.71,0.28,1.4,0.62,2.05,1.02c-0.22-0.11-0.47-0.22-0.73-0.35c-0.39-0.17-0.82-0.37-1.26-0.6L136.88,43.34z M134.2,41.59
		c0.37,0.33,0.75,0.64,1.15,0.93c0.54,0.46,1.14,0.85,1.78,1.16c0.43,0.26,0.85,0.5,1.2,0.7c0.35,0.19,0.63,0.36,0.82,0.48
		c0.19,0.12,0.33,0.22,0.48,0.34c-0.79-0.49-1.61-0.94-2.45-1.35C135.95,43.25,134.79,42.17,134.2,41.59z M140.36,45.35
		c0.45,0.39,0.83,0.86,1.12,1.37c-0.02-0.02-0.04-0.05-0.06-0.07C141.09,46.2,140.74,45.76,140.36,45.35z"/>
	<path class="st34" d="M131.15,60.6c-0.7,0.01-1.4-0.11-2.06-0.35c-0.06-0.02-0.11-0.04-0.15-0.05l0.2-0.74
		c0.05,0.01,0.12,0.03,0.2,0.06c2.56,0.88,5.56-0.44,6.69-0.94c3.43-1.51,4.89-3.81,5.51-5.47c0.7-1.87,0.74-4,0.11-5.71l0.72-0.27
		c0.7,1.87,0.65,4.21-0.11,6.24c-0.68,1.8-2.25,4.29-5.92,5.92C134,60.32,132.32,60.6,131.15,60.6z"/>
	<path class="st34" d="M141.47,47.06l0.77-0.33c0.17-0.07,0.37,0.01,0.44,0.18l0.03,0.08c0.07,0.17-0.01,0.37-0.18,0.44l-0.77,0.33
		c-0.17,0.07-0.37-0.01-0.44-0.18l-0.03-0.08C141.23,47.33,141.3,47.13,141.47,47.06z"/>
	<polygon class="st20" points="128.69,49.88 107.65,55.69 117,74.29 137.25,69.58 	"/>
	<polygon class="st39" points="129.73,60.03 135.61,69.77 124.86,72.37 	"/>
	<path class="st0" d="M125.86,56.68c-4.2-2.09-8.95-1.06-10.6,2.29l-1.84,3.02l1.39,0.7c0.48,2.4,2.31,4.75,5.06,6.11
		c2.75,1.36,5.73,1.39,7.93,0.31l0.84,0.42l1.35-2.23c0.18-0.25,0.35-0.51,0.48-0.79C132.12,63.16,130.06,58.76,125.86,56.68z"/>
	<path class="st39" d="M129.77,60.07l-7.28,9.61c1.91,0.38,3.8,0.16,5.3-0.58l0.84,0.42l1.35-2.23c0.18-0.25,0.35-0.51,0.48-0.79
		C131.46,64.49,131.12,62.11,129.77,60.07z"/>
	<path class="st19" d="M125.86,56.68c-4.2-2.09-8.95-1.06-10.6,2.29l-1.84,3.02l1.39,0.7c0.48,2.4,2.31,4.75,5.06,6.11
		c2.75,1.36,5.73,1.39,7.93,0.31l0.84,0.42l1.35-2.23c0.18-0.25,0.35-0.51,0.48-0.79C132.12,63.16,130.06,58.76,125.86,56.68z"/>
	
		<ellipse transform="matrix(0.4435 -0.8963 0.8963 0.4435 8.4169 145.0546)" class="st0" cx="121.02" cy="65.75" rx="6.75" ry="8.49"/>
	
		<ellipse transform="matrix(0.4435 -0.8963 0.8963 0.4435 8.4169 145.0546)" class="st40" cx="121.02" cy="65.75" rx="6.75" ry="8.49"/>
	
		<ellipse transform="matrix(0.4435 -0.8963 0.8963 0.4435 8.4169 145.0546)" class="st19" cx="121.02" cy="65.75" rx="6.75" ry="8.49"/>
	
		<ellipse transform="matrix(0.4435 -0.8963 0.8963 0.4435 8.4169 145.0546)" class="st0" cx="121.02" cy="65.75" rx="6.33" ry="7.96"/>
	
		<ellipse transform="matrix(0.4435 -0.8963 0.8963 0.4435 8.4169 145.0546)" class="st39" cx="121.02" cy="65.75" rx="6.33" ry="7.96"/>
	<path class="st0" d="M123.83,60.07c-3.17-1.57-6.66-1.25-8.72,0.56c-0.4,2.87,1.54,6.09,4.91,7.77c3.06,1.51,6.42,1.32,8.54-0.27
		C129.22,65.2,127.31,61.79,123.83,60.07z"/>
	<path class="st40" d="M123.83,60.07c-3.17-1.57-6.66-1.25-8.72,0.56c-0.4,2.87,1.54,6.09,4.91,7.77c3.06,1.51,6.42,1.32,8.54-0.27
		C129.22,65.2,127.31,61.79,123.83,60.07z"/>
	
		<ellipse transform="matrix(0.4435 -0.8963 0.8963 0.4435 8.4169 145.0546)" class="st19" cx="121.02" cy="65.75" rx="6.33" ry="7.96"/>
</g>
<g id="freepik--graduation-hat-1--inject-96">
	<path class="st34" d="M37.9,19.6l2.37,4.45c0,0,2.27,1.4,8.86-2.76s6.34-5.76,6.34-5.76l-2.91-5.52L37.9,19.6z"/>
	<path class="st41" d="M37.9,19.6l2.37,4.45c0,0,2.27,1.4,8.86-2.76s6.34-5.76,6.34-5.76l-2.91-5.52L37.9,19.6z"/>
	<path class="st34" d="M43.21,8.31c-1.18,1.12-11.95,9.83-14.54,11.93c-0.11,0.09-0.13,0.26-0.04,0.37c0.05,0.06,0.12,0.1,0.2,0.1
		l14.06,0.25c0.23,0,0.46-0.09,0.62-0.25L59.49,4.78c0.08-0.08,0.08-0.21,0-0.29c-0.05-0.05-0.13-0.07-0.2-0.06L43.51,8.15
		C43.39,8.18,43.29,8.23,43.21,8.31z"/>
	<path class="st20" d="M34.51,28.52c-0.14,0-0.25-0.11-0.25-0.25c-0.02-2.69-0.04-7.22,0.01-7.42c0.03-0.12,0.05-0.2,4.55-3.93
		c2.2-1.82,4.41-3.64,4.43-3.65c0.11-0.09,0.27-0.07,0.36,0.04c0.09,0.11,0.07,0.27-0.04,0.36c-3.31,2.71-8.27,6.81-8.82,7.36
		c-0.03,0.59-0.01,4.59,0.01,7.25c0,0.14-0.1,0.25-0.24,0.26c0,0-0.01,0-0.01,0L34.51,28.52z"/>
	<rect x="33.71" y="28.15" class="st20" width="1.61" height="2.02"/>
	<path class="st20" d="M33.76,30.19c-0.06,0.95-0.49,7.25-0.84,9.43c-0.37,2.34-0.55,3.08-0.55,3.09c-0.01,0.05,0.02,0.11,0.07,0.12
		c0,0,0,0,0,0h0.02c0.05,0,0.09-0.03,0.1-0.08c0-0.01,0.17-0.75,0.55-3.1c0.35-2.2,0.78-8.56,0.84-9.46L33.76,30.19z"/>
	<path class="st20" d="M34.07,30.19c-0.07,1.25-0.6,10.09-1.33,13.01c-0.01,0.05,0.02,0.11,0.07,0.12c0,0,0,0,0,0
		c0.01,0,0.02,0,0.02,0c0.05,0,0.09-0.03,0.1-0.08c0.74-2.95,1.27-11.85,1.34-13.06L34.07,30.19z"/>
	<path class="st20" d="M34.34,30.19c-0.08,1.06-0.82,10.75-1.39,13.13c-0.01,0.06,0.02,0.11,0.08,0.12c0.01,0,0.02,0,0.02,0
		c0.05,0,0.09-0.03,0.1-0.08c0.57-2.41,1.32-12.19,1.39-13.17L34.34,30.19z"/>
	<path class="st20" d="M34.44,30.19c-0.06,1.21-0.56,11.31-0.94,13.21c-0.01,0.05,0.02,0.11,0.08,0.12c0,0,0,0,0,0h0.02
		c0.05,0,0.09-0.03,0.1-0.08c0.39-1.95,0.89-12.02,0.95-13.25L34.44,30.19z"/>
	<path class="st20" d="M34.99,30.19h-0.2c-0.03,1.25-0.27,10.21,0,13.35c0,0.05,0.05,0.09,0.1,0.09h0.01
		c0.06-0.01,0.1-0.05,0.09-0.11C34.71,40.39,34.95,31.42,34.99,30.19z"/>
	<path class="st20" d="M34.77,30.19h-0.2c-0.06,1.28-0.55,12.48-0.53,13.21c0,0.06,0.05,0.1,0.1,0.1l0,0c0.06,0,0.1-0.05,0.1-0.11
		C34.21,42.69,34.71,31.35,34.77,30.19z"/>
	<path class="st20" d="M34.94,30.19c0.02,1.39,0.16,13,0.16,13.09c0,0.06,0.05,0.1,0.1,0.1l0,0l0,0c0.06,0,0.1-0.05,0.1-0.1l0,0
		c0-0.08-0.14-11.6-0.16-13.09H34.94z"/>
	<path class="st20" d="M33.9,30.19c-0.06,1.22-0.56,10-1.22,12.24c-0.01,0.05,0.02,0.11,0.07,0.12c0.01,0,0.02,0,0.03,0
		c0.05,0,0.08-0.03,0.1-0.07c0.68-2.3,1.16-11.07,1.23-12.3L33.9,30.19z"/>
	<path class="st20" d="M44.21,12.82c0.13,0.22-0.14,0.62-0.62,0.92c-0.48,0.29-0.97,0.34-1.1,0.12s0.14-0.62,0.62-0.92
		C43.59,12.65,44.08,12.6,44.21,12.82z"/>
</g>
</svg>
